# xmcd
#
# Track frame offsets:
#	182
#	23137
#	39337
#	52545
#	72490
#	89690
#	105442
#	123820
#	134855
#	154742
#	171982
#	181575
#	205692
#	223672
#	240355
#	255132
#	269977
#	286482
#	304085
#
# Disc length: 4291 seconds
#
# Revision: 1
# Processed by: cddbd v1.4PL0 Copyright (c) Steve Scherf et al.
# Submitted via: EasyCDDAExtractor 5.1.0
#
DISCID=0910c113
DTITLE=Choeurs Basques - Argileak
DYEAR=1900
DGENRE=Country
TTITLE0=La Golondrina
TTITLE1=Itsasoa Lano
TTITLE2=Aldapeko
TTITLE3=Maitia Nun Zira
TTITLE4=Elurra Mara Mara
TTITLE5=Adios Pamplona
TTITLE6=Estampas Bilbainas
TTITLE7=Nere Aitak Amari
TTITLE8=Martixu Nora Zoaz
TTITLE9=Handi Zare Erresuman
TTITLE10=Txantxangorria
TTITLE11=La Paloma
TTITLE12=Goxo Goxo
TTITLE13=Maitexu Mia
TTITLE14=Souliko
TTITLE15=Jesus Jauna Urrikal
TTITLE16=Olentzero Bidasotara
TTITLE17=Goizian Argi Hastian
TTITLE18=Bizkaia, Gipuzkoa
EXTD=
EXTT0=
EXTT1=
EXTT2=
EXTT3=
EXTT4=
EXTT5=
EXTT6=
EXTT7=
EXTT8=
EXTT9=
EXTT10=
EXTT11=
EXTT12=
EXTT13=
EXTT14=
EXTT15=
EXTT16=
EXTT17=
EXTT18=
PLAYORDER=
